<svg width="40" height="40" viewBox="0 0 40 40" fill="none" xmlns="http://www.w3.org/2000/svg">
    <defs>
        <linearGradient id="dbfDoc" x1="8" y1="4" x2="32" y2="36" gradientUnits="userSpaceOnUse">
            <stop stop-color="#2D6CDF"/>
            <stop offset="1" stop-color="#18B8C4"/>
        </linearGradient>
    </defs>

    <!-- document sheet with a folded top-right corner -->
    <path d="M11 4H24L32 12V33A3 3 0 0 1 29 36H11A3 3 0 0 1 8 33V7A3 3 0 0 1 11 4Z" fill="url(#dbfDoc)"/>
    <path d="M24 4L32 12H24Z" fill="#FFFFFF" fill-opacity="0.30"/>

    <!-- table: header band + 3x3 grid -->
    <rect x="12" y="11" width="16" height="4" fill="#FFFFFF" fill-opacity="0.40"/>
    <g stroke="#FFFFFF" stroke-width="1.1" stroke-linecap="round">
        <rect x="12" y="11" width="16" height="12" rx="0.5" fill="none"/>
        <line x1="17.33" y1="11" x2="17.33" y2="23"/>
        <line x1="22.67" y1="11" x2="22.67" y2="23"/>
        <line x1="12" y1="15" x2="28" y2="15"/>
        <line x1="12" y1="19" x2="28" y2="19"/>
    </g>

    <text x="20" y="31.6" text-anchor="middle" fill="#FFFFFF"
          font-family="-apple-system, 'Segoe UI', Helvetica, Arial, sans-serif"
          font-size="7" font-weight="700" letter-spacing="0.5">DBF</text>
</svg>
